<?xml version="1.0" encoding="UTF-8" standalone="no"?>
<svg
   xmlns:dc="http://purl.org/dc/elements/1.1/"
   xmlns:cc="http://creativecommons.org/ns#"
   xmlns:rdf="http://www.w3.org/1999/02/22-rdf-syntax-ns#"
   xmlns:svg="http://www.w3.org/2000/svg"
   xmlns="http://www.w3.org/2000/svg"
   xmlns:sodipodi="http://sodipodi.sourceforge.net/DTD/sodipodi-0.dtd"
   xmlns:inkscape="http://www.inkscape.org/namespaces/inkscape"
   width="195.16631mm"
   height="171.53267mm"
   viewBox="0 0 195.16631 171.53267"
   version="1.1"
   id="svg8"
   inkscape:export-filename="/home/josue/projects/WebWork/taxidriver/alTaxi/local/logo.png"
   inkscape:export-xdpi="95"
   inkscape:export-ydpi="95"
   inkscape:version="1.0.2 (1.0.2+r75+1)"
   sodipodi:docname="dibujo.svg">
  <defs
     id="defs2" />
  <sodipodi:namedview
     id="base"
     pagecolor="#ffffff"
     bordercolor="#666666"
     borderopacity="1.0"
     inkscape:pageopacity="0.0"
     inkscape:pageshadow="2"
     inkscape:zoom="0.49497475"
     inkscape:cx="686.31453"
     inkscape:cy="399.60038"
     inkscape:document-units="mm"
     inkscape:current-layer="layer1"
     inkscape:document-rotation="0"
     showgrid="false"
     fit-margin-top="0"
     fit-margin-left="0"
     fit-margin-right="0"
     fit-margin-bottom="0"
     inkscape:window-width="1600"
     inkscape:window-height="800"
     inkscape:window-x="0"
     inkscape:window-y="0"
     inkscape:window-maximized="1" />
  <metadata
     id="metadata5">
    <rdf:RDF>
      <cc:Work
         rdf:about="">
        <dc:format>image/svg+xml</dc:format>
        <dc:type
           rdf:resource="http://purl.org/dc/dcmitype/StillImage" />
        <dc:title></dc:title>
      </cc:Work>
    </rdf:RDF>
  </metadata>
  <g
     inkscape:label="Capa 1"
     inkscape:groupmode="layer"
     id="layer1"
     transform="translate(-5.9507139,-42.816158)">
    <path
       style="fill:#000000;stroke-width:0.264583"
       d="m 37.8966,214.21368 c -1.07628,-0.13175 -3.338468,-0.70756 -5.027084,-1.27956 -5.942091,-2.01283 -11.780285,-3.30918 -19.042376,-4.22829 -2.14745,-0.27179 -4.2631927,-0.67967 -4.7016527,-0.90641 -1.16664,-0.60329 -2.664595,-2.37553 -2.989279,-3.53663 -0.195124,-0.69778 -0.234407,-6.7068 -0.126819,-19.39945 0.177245,-20.91048 0.132516,-20.43714 2.113184,-22.36213 0.649618,-0.63136 1.57974,-1.27948 2.0669377,-1.44027 0.487197,-0.16078 3.632953,-0.80825 6.990569,-1.4388 l 6.104757,-1.14646 5.38205,-5.12857 c 17.10811,-16.30235 29.517957,-25.66994 37.077475,-27.988 0.997593,-0.3059 1.856568,-0.55619 1.908831,-0.55619 0.05226,0 0.1303,9.07852 0.173416,20.17448 0.07613,19.59243 0.09407,20.2172 0.621919,21.65523 0.793957,2.163 1.73342,3.61959 3.42745,5.31407 1.625174,1.62561 4.246438,3.13364 6.319175,3.63546 1.594025,0.38592 4.651426,0.40797 6.246164,0.0451 0.651788,-0.14833 6.638677,-2.46891 13.304189,-5.15684 13.054694,-5.26442 13.832974,-5.49283 16.833104,-4.94003 3.53916,0.65212 6.4542,2.9414 8.0281,6.30475 0.67675,1.44614 0.85047,2.1959 0.9393,4.05384 0.13734,2.87272 -0.35171,4.65991 -1.89177,6.91317 -1.83889,2.69047 -2.86094,3.2853 -11.682,6.79877 -17.229864,6.86276 -32.37886,12.91661 -45.697601,18.2617 -10.350717,4.15397 -14.475198,5.68809 -16.007291,5.95399 -2.818008,0.48908 -7.998928,0.68747 -10.370748,0.39712 z m 62.54405,-6.27699 c -2.299984,-1.10753 -4.071054,-3.32894 -4.483194,-5.62316 l -0.16413,-0.91374 11.585284,-4.60859 c 6.3719,-2.53473 12.4093,-5.03073 13.41645,-5.54665 1.02565,-0.52541 2.58741,-1.66154 3.55031,-2.58274 l 1.71913,-1.64468 7.16532,-0.0908 c 6.67926,-0.0846 7.26404,-0.13071 8.62053,-0.67988 0.80037,-0.32403 1.49752,-0.5892 1.54923,-0.58927 0.0517,-7e-5 0.0517,1.39885 0,3.10872 -0.0833,2.75588 -0.17752,3.2789 -0.8295,4.60654 -2.42085,4.92964 -8.87396,6.38449 -13.31024,3.00077 l -0.84569,-0.64504 -0.17598,1.24829 c -0.40503,2.87314 -2.51746,5.68268 -5.17323,6.88042 -2.80735,1.26609 -6.70578,0.76462 -8.94302,-1.15038 l -1.07997,-0.92441 -0.50513,1.13175 c -1.56578,3.50813 -4.58936,5.56719 -8.38332,5.70904 -1.8901,0.0707 -2.29733,-0.005 -3.71285,-0.68623 z m 28.40512,-26.64114 c -0.0705,-0.0705 0.0369,-1.05277 0.23867,-2.18281 0.95868,-5.36905 -1.16311,-11.32996 -5.37838,-15.1099 -1.76981,-1.58702 -5.56547,-3.54483 -7.73176,-3.98805 -2.25209,-0.46078 -5.51654,-0.3522 -7.71329,0.25655 -1.07855,0.29888 -7.14512,2.63429 -13.481274,5.18981 -12.573851,5.07133 -13.366165,5.29491 -15.845551,4.47139 -2.12272,-0.70506 -3.593301,-1.99823 -4.601731,-4.04658 l -0.876901,-1.78119 -0.07541,-55.43582 c -0.05315,-39.07199 0.0096,-55.93478 0.212572,-57.12615 0.699891,-4.10814 3.64038,-7.35277 7.577695,-8.36146 1.420977,-0.36404 5.007239,-0.40429 30.28599,-0.33995 l 28.67416,0.073 1.51291,0.7091 c 3.25298,1.52467 5.54445,4.67377 6.04795,8.3115 0.15642,1.13016 0.22604,24.53961 0.18249,61.35857 l -0.0704,59.53124 -0.57983,1.53428 c -0.82677,2.1877 -2.10282,3.82855 -3.97226,5.10787 -2.30161,1.57507 -4.21532,1.95681 -9.80969,1.95681 -2.45725,0 -4.52542,-0.0577 -4.59593,-0.1282 z m 8.24208,-73.55825 V 62.89042 H 110.62951 84.171178 v 44.84688 44.84687 h 26.458332 26.45834 z m -14.58892,30.31855 c -0.56849,-0.45997 -0.6328,-0.74533 -0.71557,-3.175 l -0.0909,-2.6696 H 110.73704 99.781626 v 2.39056 c 0,1.75501 -0.11361,2.56394 -0.42731,3.04271 -0.40308,0.61518 -0.56576,0.65215 -2.86941,0.65215 -3.22414,0 -3.31786,-0.0993 -3.31786,-3.51454 0,-2.36383 -0.0475,-2.59435 -0.66146,-3.20828 -0.661419,-0.66142 -0.661462,-0.66181 -0.661462,-5.94793 0,-2.90756 0.116112,-5.59188 0.258032,-5.96515 0.24874,-0.65424 0.22206,-0.67868 -0.74083,-0.67868 -0.549378,0 -1.141743,-0.14288 -1.316368,-0.3175 -0.430763,-0.43077 -0.412525,-3.24301 0.02336,-3.60478 0.187482,-0.15559 1.103366,-0.319 2.035298,-0.36312 l 1.69442,-0.0802 0.5705,-1.45521 c 0.31378,-0.80036 1.08185,-2.86535 1.70682,-4.58886 1.28169,-3.53456 1.98105,-4.54283 3.41967,-4.93021 1.913084,-0.51514 10.884874,-0.81023 16.202894,-0.53294 5.80023,0.30244 6.81666,0.50787 7.69857,1.55595 0.34911,0.41489 1.39507,2.85342 2.32437,5.41896 l 1.68963,4.6646 h 1.91897 c 2.23652,0 2.46676,0.21681 2.46676,2.32285 0,1.4577 -0.53065,2.17525 -1.60834,2.17482 l -0.64062,-2.6e-4 0.0839,6.06689 c 0.0816,5.90479 0.0692,6.0747 -0.46302,6.35956 -0.49893,0.26701 -0.54688,0.53379 -0.54688,3.04229 0,2.65531 -0.0239,2.76842 -0.69714,3.29798 -0.97875,0.76989 -4.49232,0.79772 -5.42512,0.043 z M 103.26649,126.4817 c 0.60798,-0.5502 0.64911,-2.38343 0.072,-3.20741 -0.37775,-0.53931 -0.62571,-0.58804 -2.99214,-0.58804 -3.244564,0 -3.607444,0.21293 -3.607444,2.11667 0,1.89517 0.36996,2.11667 3.535464,2.11667 1.96269,0 2.61353,-0.0952 2.99214,-0.43789 z m 20.86277,-0.28972 c 0.4382,-0.55589 0.54201,-0.9642 0.43986,-1.73017 -0.22086,-1.65618 -0.45174,-1.77556 -3.43398,-1.77556 -3.20254,0 -3.62646,0.24206 -3.62646,2.0707 0,1.91267 0.40007,2.16264 3.46139,2.16264 2.50525,0 2.60346,-0.0226 3.15919,-0.72761 z m -0.79974,-10.0802 c 0,-0.33806 -2.86303,-8.28297 -3.05356,-8.47364 -0.2293,-0.22946 -19.08314,-0.20925 -19.3133,0.0207 -0.20759,0.20741 -3.033154,8.07215 -3.033154,8.44257 0,0.13349 5.481304,0.23485 12.700004,0.23485 6.985,0 12.70001,-0.10101 12.70001,-0.22447 z m -9.6573,-18.18004 c -2.29497,-0.76679 -3.33001,-0.78946 -5.46653,-0.11973 -2.16889,0.67987 -2.95028,0.6669 -3.77942,-0.0627 -1.65835,-1.45934 -0.8629,-3.32875 1.90021,-4.46575 1.25584,-0.51676 1.99177,-0.62748 4.17074,-0.62748 5.64618,0 9.07655,2.45201 6.81302,4.86992 -0.99743,1.06545 -1.49689,1.12116 -3.63802,0.40577 z M 98.842916,91.82366 c -0.90251,-0.97382 -0.87506,-2.29051 0.0659,-3.1626 0.99002,-0.91752 4.625974,-2.6574 6.693574,-3.20303 2.64541,-0.69811 7.73073,-0.62798 10.43911,0.14396 2.58118,0.73569 5.49227,2.23232 6.3692,3.27449 0.837,0.99471 0.82811,1.81249 -0.0308,2.83322 -0.92727,1.10201 -1.75857,1.0547 -4.34842,-0.24745 -4.91045,-2.46893 -10.00951,-2.50391 -14.71875,-0.10096 -2.66113,1.35788 -3.554314,1.45027 -4.469864,0.46237 z m -4.92274,-5.62504 c -0.85219,-0.67034 -1.14613,-1.72199 -0.74917,-2.68035 0.75813,-1.83028 7.249954,-5.05459 12.299134,-6.10865 2.47438,-0.51655 8.31886,-0.45284 10.97605,0.11964 4.0192,0.86593 8.91135,3.14484 11.06025,5.15221 1.06954,0.9991 1.14475,2.16342 0.20073,3.10743 -0.94497,0.94498 -2.38817,0.88312 -3.83415,-0.16435 -1.36914,-0.99179 -4.17853,-2.41222 -5.96747,-3.01715 -6.73705,-2.27813 -14.28414,-1.19399 -20.372914,2.92659 -1.76017,1.19119 -2.71882,1.36757 -3.61246,0.66463 z M 124.61854,54.39593 c 1.38946,-0.48437 1.79911,-1.91113 0.82765,-2.88259 -0.5161,-0.5161 -0.88195,-0.52917 -14.81668,-0.52917 -13.934724,0 -14.300564,0.0131 -14.816664,0.52917 -0.94542,0.94542 -0.42773,2.73981 0.86222,2.98858 1.42106,0.27405 27.133054,0.17652 27.943474,-0.10599 z m 23.58181,86.28187 v -10.31875 h 26.45834 26.45833 v 10.31875 10.31875 h -26.45833 -26.45834 z m 11.37709,6.35 c 0,-0.40723 -0.17639,-0.52917 -0.76545,-0.52917 -0.4539,0 -0.8308,-0.17033 -0.92604,-0.41851 -0.0883,-0.23018 -0.1606,-2.79003 -0.1606,-5.68854 v -5.27003 h 0.64424 c 0.88027,0 1.99301,0.44956 2.11857,0.85592 0.0569,0.18409 0.17516,0.66213 0.26284,1.06231 0.12264,0.5597 0.3137,0.7276 0.82794,0.7276 0.65666,0 0.66712,-0.0317 0.59027,-1.78593 l -0.0782,-1.78594 -5.86221,-0.0711 -5.8622,-0.0711 -0.0909,1.42618 c -0.12591,1.97497 -0.0271,2.28797 0.72223,2.28797 0.5273,0 0.64206,-0.13283 0.64206,-0.74318 0,-1.11771 0.52318,-1.63066 1.79115,-1.75613 l 1.12969,-0.11178 -0.0714,5.60503 -0.0714,5.60502 -0.7276,0.0837 c -0.51402,0.0591 -0.72761,0.2339 -0.72761,0.59531 0,0.47845 0.21426,0.5116 3.30729,0.5116 3.13091,0 3.3073,-0.0282 3.3073,-0.52917 z m 7.9375,0.0176 c 0,-0.36142 -0.21359,-0.53617 -0.72761,-0.59531 -0.89777,-0.1033 -1.08298,-1.022 -0.49146,-2.43771 l 0.39832,-0.9533 1.93172,0.004 c 1.06246,0.002 2.0674,0.0915 2.23322,0.19844 0.41631,0.26841 0.9965,2.3111 0.80108,2.82035 -0.088,0.22921 -0.40178,0.41674 -0.69739,0.41674 -0.36108,0 -0.53747,0.17367 -0.53747,0.52917 0,0.49849 0.17639,0.52917 3.04271,0.52917 2.24664,0 3.04818,-0.0865 3.0636,-0.33073 0.0167,-0.26459 0.0476,-0.26459 0.15434,0 0.0927,0.22988 0.85285,0.33073 2.49265,0.33073 2.13411,0 2.3592,-0.0476 2.3592,-0.49831 0,-0.27579 -0.23629,-0.5601 -0.52916,-0.63669 -0.29654,-0.0775 -0.52917,-0.36089 -0.52917,-0.64453 0,-0.47055 1.90966,-3.29807 2.32748,-3.44617 0.10292,-0.0365 0.69085,0.72769 1.30653,1.69815 0.85412,1.3463 1.0501,1.84798 0.82697,2.11684 -0.16084,0.19381 -0.45646,0.35237 -0.65692,0.35237 -0.20046,0 -0.36448,0.23813 -0.36448,0.52917 0,0.49977 0.17639,0.52917 3.175,0.52917 2.96048,0 3.175,-0.0345 3.175,-0.51077 0,-0.32824 -0.21273,-0.54098 -0.59531,-0.59531 -0.42682,-0.0606 -1.17723,-0.96051 -2.65125,-3.17936 l -2.05594,-3.09481 1.76745,-2.40086 c 1.08511,-1.47397 2.00651,-2.46085 2.38667,-2.55626 0.37622,-0.0944 0.61922,-0.35181 0.61922,-0.6559 0,-0.45167 -0.21936,-0.50048 -2.24896,-0.50048 -2.07257,0 -2.24896,0.0415 -2.24896,0.52916 0,0.29881 0.17639,0.52917 0.40518,0.52917 0.79874,0 0.71005,0.82089 -0.24393,2.25769 -0.52823,0.79556 -1.01751,1.44648 -1.08729,1.44648 -0.0698,0 -0.55907,-0.65092 -1.08729,-1.44648 -0.95399,-1.4368 -1.04268,-2.25769 -0.24393,-2.25769 0.22879,0 0.40518,-0.23036 0.40518,-0.52917 0,-0.49977 -0.17639,-0.52916 -3.175,-0.52916 -2.92806,0 -3.175,0.0386 -3.175,0.49609 0,0.3303 0.24474,0.54504 0.73232,0.64256 0.58141,0.11628 1.10047,0.72262 2.51884,2.94242 l 1.78653,2.79595 -2.02189,2.63225 c -1.21035,1.57573 -2.30156,2.72974 -2.71866,2.87514 -0.75843,0.26439 -1.6043,0.053 -2.05984,-0.51471 -0.15901,-0.19818 -1.12718,-2.74158 -2.15149,-5.652 -1.02432,-2.91041 -1.94681,-5.50573 -2.04998,-5.76736 -0.15264,-0.38704 -0.43863,-0.46101 -1.53462,-0.39687 l -1.34702,0.0788 -1.79345,4.89479 c -0.98639,2.69214 -1.98258,5.40103 -2.21375,6.01977 -0.29368,0.78606 -0.61293,1.17332 -1.05969,1.28545 -0.39423,0.099 -0.63939,0.35238 -0.63939,0.66096 0,0.4558 0.22441,0.50049 2.51354,0.50049 2.30837,0 2.51355,-0.0418 2.51355,-0.5116 z m -0.4074,-5.50767 c 0.0981,-0.25467 0.55009,-1.52657 1.00439,-2.82645 0.4543,-1.29988 0.8556,-2.25238 0.89177,-2.11666 0.0362,0.13571 0.4179,1.40761 0.84828,2.82644 l 0.78251,2.57969 h -1.85267 c -1.65601,0 -1.83373,-0.0491 -1.67428,-0.46302 z m 30.30531,5.50767 c 0,-0.36141 -0.21358,-0.53616 -0.7276,-0.59531 l -0.72761,-0.0837 v -5.55625 -5.55625 l 0.72761,-0.0837 c 0.51402,-0.0591 0.7276,-0.23389 0.7276,-0.59531 0,-0.47845 -0.21426,-0.51159 -3.30729,-0.51159 -3.1309,0 -3.30729,0.0282 -3.30729,0.52916 0,0.40723 0.17639,0.52917 0.76544,0.52917 0.45391,0 0.83081,0.17034 0.92604,0.41852 0.0883,0.23018 0.1606,2.60169 0.1606,5.27002 0,2.66833 -0.0723,5.03985 -0.1606,5.27003 -0.0952,0.24818 -0.47213,0.41851 -0.92604,0.41851 -0.58905,0 -0.76544,0.12194 -0.76544,0.52917 0,0.50094 0.17639,0.52917 3.30729,0.52917 3.09303,0 3.30729,-0.0332 3.30729,-0.5116 z m -48.68333,-18.12709 c 0,-0.21034 0.32742,-0.5393 0.7276,-0.73102 0.63791,-0.30561 1.00232,-1.09025 2.95592,-6.36444 l 2.22831,-6.01585 h 1.24911 c 0.8766,0 1.29539,0.12061 1.4043,0.40441 0.0854,0.22243 1.00408,2.81204 2.04162,5.75469 2.20054,6.24115 2.21677,6.27631 2.8962,6.27631 0.34347,0 0.51986,0.17955 0.51986,0.52917 0,0.49849 -0.17639,0.52917 -3.04271,0.52917 -2.86632,0 -3.04271,-0.0307 -3.04271,-0.52917 0,-0.3898 0.17639,-0.52917 0.66976,-0.52917 0.91371,0 1.04655,-0.53397 0.52413,-2.10682 l -0.44267,-1.33276 h -2.3261 -2.3261 l -0.39158,1.38906 c -0.46862,1.66233 -0.38304,1.99388 0.54238,2.10125 0.41712,0.0484 0.73865,0.26983 0.79075,0.54459 0.0787,0.41484 -0.17574,0.46302 -2.44513,0.46302 -2.03262,0 -2.53294,-0.0755 -2.53294,-0.38244 z m 8.13377,-5.63683 c -0.0715,-0.25467 -0.46664,-1.5738 -0.87806,-2.93141 l -0.74802,-2.46838 -0.83837,2.33609 c -1.41488,3.94252 -1.49667,3.52672 0.69371,3.52672 1.6834,0 1.8859,-0.053 1.77074,-0.46302 z m 6.6829,5.50767 c 0,-0.36141 0.21358,-0.53616 0.7276,-0.59531 l 0.7276,-0.0837 v -5.55625 -5.55625 l -0.7276,-0.0837 c -0.51402,-0.0591 -0.7276,-0.23389 -0.7276,-0.59531 0,-0.47731 0.21274,-0.51159 3.175,-0.51159 2.96225,0 3.175,0.0343 3.175,0.51159 0,0.36142 -0.21359,0.53617 -0.72761,0.59531 l -0.7276,0.0837 -0.0714,5.6224 -0.0714,5.62239 h 1.97043 c 1.81356,0 2.0141,-0.0555 2.51881,-0.69714 0.3016,-0.38342 0.54837,-0.90947 0.54837,-1.16898 0,-0.82292 0.30521,-1.30888 0.82206,-1.30888 0.56014,0 0.58384,0.18677 0.33087,2.60703 l -0.16998,1.62631 h -5.38627 c -5.1482,0 -5.38626,-0.0226 -5.38626,-0.5116 z m -15.34584,-14.83424 v -0.79375 h 13.89063 13.89062 v 0.79375 0.79375 h -13.89062 -13.89063 z"
       id="path847"
       sodipodi:nodetypes="csssssssscsssssssssssssssscccscssscsssssscssscssccsssssssscsssscssscssssscccccccccsccccssssssssssscsssssscsssccssssssssssssssssssssssssssscsssssccssssssccssssssssssssscsscccccccccsssscssssscccssssccccsssscsscccsssssssscsssssssssscssssssssssssssscsssssscsscssccsssscsssscccsssssssssssssssscssssssssscccssssssscsssssccccsssscccssssscsssccccccccc" />
    <text
       xml:space="preserve"
       style="font-style:normal;font-weight:normal;font-size:10.5833px;line-height:1.25;font-family:sans-serif;letter-spacing:0px;word-spacing:0px;fill:#000000;fill-opacity:1;stroke:none;stroke-width:0.264583"
       x="158.16107"
       y="155.27391"
       id="text851"><tspan
         sodipodi:role="line"
         id="tspan849"
         x="158.16107"
         y="155.27391"
         style="font-style:normal;font-variant:normal;font-weight:bold;font-stretch:normal;font-size:3.52778px;font-family:'Times New Roman';-inkscape-font-specification:'Times New Roman,  Bold';stroke-width:0.264583">SERVICIO PRIVADO</tspan></text>
  </g>
</svg>
